<mxfile modified="2022-10-26T06:25:29.929Z" host="Electron" agent="5.0 (Windows NT 10.0; Win64; x64) AppleWebKit/537.36 (KHTML, like Gecko) draw.io/20.3.0 Chrome/104.0.5112.114 Electron/20.1.3 Safari/537.36" etag="d7bp4kpTvKDY84sukJK1" compressed="false" version="20.3.0" type="device">
  <diagram name="Functionality/System Logical Module/Developer Information" id="UhkV6HdyAc4lgxbhkPH5">
    <mxGraphModel dx="782" dy="549" grid="1" gridSize="10" guides="1" tooltips="1" connect="1" arrows="1" fold="1" page="1" pageScale="1" pageWidth="827" pageHeight="1169" math="0" shadow="0">
      <root>
        <mxCell id="8u1NRN3YQbFhW1grfORo-0" />
        <mxCell id="8u1NRN3YQbFhW1grfORo-9" value="Diagram/Use Cases" parent="8u1NRN3YQbFhW1grfORo-0" />
        <mxCell id="tGjOaxrCl9Wp_P7_Ldbx-0" style="edgeStyle=orthogonalEdgeStyle;rounded=0;orthogonalLoop=1;jettySize=auto;html=1;endArrow=block;endFill=0;" edge="1" parent="8u1NRN3YQbFhW1grfORo-9" source="tGjOaxrCl9Wp_P7_Ldbx-1" target="tGjOaxrCl9Wp_P7_Ldbx-2">
          <mxGeometry relative="1" as="geometry" />
        </mxCell>
        <mxCell id="tGjOaxrCl9Wp_P7_Ldbx-1" value="&amp;lt;&amp;lt;actor&amp;gt;&amp;gt;&lt;br&gt;&lt;b&gt;Developer&lt;br&gt;&lt;/b&gt;" style="text;html=1;align=center;verticalAlign=middle;dashed=0;fillColor=#ffffff;strokeColor=#000000;" vertex="1" parent="8u1NRN3YQbFhW1grfORo-9">
          <mxGeometry x="240" y="280" width="80" height="40" as="geometry" />
        </mxCell>
        <mxCell id="tGjOaxrCl9Wp_P7_Ldbx-2" value="&amp;lt;&amp;lt;actor&amp;gt;&amp;gt;&lt;br&gt;&lt;b&gt;Authorised&lt;br&gt;User&lt;br&gt;&lt;/b&gt;" style="text;html=1;align=center;verticalAlign=middle;dashed=0;fillColor=#ffffff;strokeColor=#000000;" vertex="1" parent="8u1NRN3YQbFhW1grfORo-9">
          <mxGeometry x="120" y="330" width="80" height="40" as="geometry" />
        </mxCell>
        <mxCell id="tGjOaxrCl9Wp_P7_Ldbx-3" value="" style="fontStyle=1;align=left;verticalAlign=top;childLayout=stackLayout;horizontal=1;horizontalStack=0;resizeParent=1;resizeParentMax=0;resizeLast=0;marginBottom=0;" vertex="1" parent="8u1NRN3YQbFhW1grfORo-9">
          <mxGeometry x="360" y="280" width="120" height="40" as="geometry" />
        </mxCell>
        <mxCell id="tGjOaxrCl9Wp_P7_Ldbx-4" value="&lt;p style=&quot;line-height: 0.9;&quot;&gt;Edit Developer&lt;br&gt;Info&lt;/p&gt;" style="html=1;align=left;spacingLeft=4;verticalAlign=middle;strokeColor=none;fillColor=none;fontStyle=1;spacingTop=2;" vertex="1" parent="tGjOaxrCl9Wp_P7_Ldbx-3">
          <mxGeometry width="120" height="20" as="geometry" />
        </mxCell>
        <mxCell id="tGjOaxrCl9Wp_P7_Ldbx-5" value="" style="shape=ellipse;" vertex="1" parent="tGjOaxrCl9Wp_P7_Ldbx-4">
          <mxGeometry x="1" width="20" height="10" relative="1" as="geometry">
            <mxPoint x="-25" y="5" as="offset" />
          </mxGeometry>
        </mxCell>
        <mxCell id="tGjOaxrCl9Wp_P7_Ldbx-6" value="" style="line;strokeWidth=1;fillColor=none;align=left;verticalAlign=middle;spacingTop=-1;spacingLeft=3;spacingRight=3;rotatable=0;labelPosition=right;points=[];portConstraint=eastwest;" vertex="1" parent="tGjOaxrCl9Wp_P7_Ldbx-3">
          <mxGeometry y="20" width="120" height="8" as="geometry" />
        </mxCell>
        <mxCell id="tGjOaxrCl9Wp_P7_Ldbx-7" value="- - -" style="html=1;align=left;spacingLeft=4;verticalAlign=top;strokeColor=none;fillColor=none;fontSize=8;spacing=-2;" vertex="1" parent="tGjOaxrCl9Wp_P7_Ldbx-3">
          <mxGeometry y="28" width="120" height="12" as="geometry" />
        </mxCell>
        <mxCell id="tGjOaxrCl9Wp_P7_Ldbx-8" value="" style="endArrow=open;endFill=1;endSize=12;html=1;strokeColor=#000000;fontSize=10;entryX=0;entryY=0.5;entryDx=0;entryDy=0;" edge="1" parent="8u1NRN3YQbFhW1grfORo-9">
          <mxGeometry width="160" relative="1" as="geometry">
            <mxPoint x="320" y="300" as="sourcePoint" />
            <mxPoint x="360" y="300" as="targetPoint" />
          </mxGeometry>
        </mxCell>
        <mxCell id="tGjOaxrCl9Wp_P7_Ldbx-9" style="edgeStyle=orthogonalEdgeStyle;rounded=0;orthogonalLoop=1;jettySize=auto;html=1;endArrow=block;endFill=0;" edge="1" parent="8u1NRN3YQbFhW1grfORo-9" target="tGjOaxrCl9Wp_P7_Ldbx-2">
          <mxGeometry relative="1" as="geometry">
            <mxPoint x="240" y="400" as="sourcePoint" />
            <mxPoint x="200" y="400" as="targetPoint" />
          </mxGeometry>
        </mxCell>
        <mxCell id="tGjOaxrCl9Wp_P7_Ldbx-10" value="&amp;lt;&amp;lt;actor&amp;gt;&amp;gt;&lt;br&gt;&lt;b&gt;User&lt;br&gt;&lt;/b&gt;" style="text;html=1;align=center;verticalAlign=middle;dashed=0;fillColor=#ffffff;strokeColor=#000000;" vertex="1" parent="8u1NRN3YQbFhW1grfORo-9">
          <mxGeometry x="240" y="380" width="80" height="40" as="geometry" />
        </mxCell>
        <mxCell id="tGjOaxrCl9Wp_P7_Ldbx-11" value="" style="fontStyle=1;align=left;verticalAlign=top;childLayout=stackLayout;horizontal=1;horizontalStack=0;resizeParent=1;resizeParentMax=0;resizeLast=0;marginBottom=0;" vertex="1" parent="8u1NRN3YQbFhW1grfORo-9">
          <mxGeometry x="360" y="380" width="120" height="40" as="geometry" />
        </mxCell>
        <mxCell id="tGjOaxrCl9Wp_P7_Ldbx-12" value="&lt;p style=&quot;line-height: 0.8;&quot;&gt;Read Developer&lt;br&gt;Info&lt;/p&gt;" style="html=1;align=left;spacingLeft=4;verticalAlign=middle;strokeColor=none;fillColor=none;fontStyle=1;spacingTop=2;" vertex="1" parent="tGjOaxrCl9Wp_P7_Ldbx-11">
          <mxGeometry width="120" height="20" as="geometry" />
        </mxCell>
        <mxCell id="tGjOaxrCl9Wp_P7_Ldbx-13" value="" style="shape=ellipse;" vertex="1" parent="tGjOaxrCl9Wp_P7_Ldbx-12">
          <mxGeometry x="1" width="20" height="10" relative="1" as="geometry">
            <mxPoint x="-25" y="5" as="offset" />
          </mxGeometry>
        </mxCell>
        <mxCell id="tGjOaxrCl9Wp_P7_Ldbx-14" value="" style="line;strokeWidth=1;fillColor=none;align=left;verticalAlign=middle;spacingTop=-1;spacingLeft=3;spacingRight=3;rotatable=0;labelPosition=right;points=[];portConstraint=eastwest;" vertex="1" parent="tGjOaxrCl9Wp_P7_Ldbx-11">
          <mxGeometry y="20" width="120" height="8" as="geometry" />
        </mxCell>
        <mxCell id="tGjOaxrCl9Wp_P7_Ldbx-15" value="." style="html=1;align=left;spacingLeft=4;verticalAlign=top;strokeColor=none;fillColor=none;fontSize=8;spacing=-2;" vertex="1" parent="tGjOaxrCl9Wp_P7_Ldbx-11">
          <mxGeometry y="28" width="120" height="12" as="geometry" />
        </mxCell>
        <mxCell id="tGjOaxrCl9Wp_P7_Ldbx-16" value="" style="endArrow=open;endFill=1;endSize=12;html=1;strokeColor=#000000;fontSize=10;entryX=0;entryY=1;entryDx=0;entryDy=0;exitX=1;exitY=0.5;exitDx=0;exitDy=0;" edge="1" parent="8u1NRN3YQbFhW1grfORo-9" source="tGjOaxrCl9Wp_P7_Ldbx-10" target="tGjOaxrCl9Wp_P7_Ldbx-12">
          <mxGeometry width="160" relative="1" as="geometry">
            <mxPoint x="330.0000000000001" y="400" as="sourcePoint" />
            <mxPoint x="370.0000000000001" y="400" as="targetPoint" />
          </mxGeometry>
        </mxCell>
        <mxCell id="8u1NRN3YQbFhW1grfORo-20" value="Notes" parent="8u1NRN3YQbFhW1grfORo-0" />
        <mxCell id="8u1NRN3YQbFhW1grfORo-21" value="Information about the organisation that developed the solution for the Sponsor.&amp;nbsp;&lt;br&gt;Includes Title, Description, DateTime crreated." style="shape=note;whiteSpace=wrap;html=1;size=14;verticalAlign=top;align=left;spacingTop=-6;strokeWidth=1;fillColor=none;fontSize=12;" parent="8u1NRN3YQbFhW1grfORo-20" vertex="1">
          <mxGeometry x="520" y="310" width="240" height="70" as="geometry" />
        </mxCell>
        <mxCell id="8u1NRN3YQbFhW1grfORo-7" value="Title/Diagram" parent="8u1NRN3YQbFhW1grfORo-0" />
        <mxCell id="8u1NRN3YQbFhW1grfORo-8" value="&lt;font style=&quot;font-size: 12px&quot;&gt;Diagram: Base System Logical Module -&amp;nbsp;Functionality -&amp;nbsp;System Developer Information&lt;/font&gt;" style="text;strokeColor=none;fillColor=none;html=1;fontSize=12;fontStyle=2;verticalAlign=middle;align=left;shadow=0;glass=0;comic=0;opacity=30;fontColor=#808080;" parent="8u1NRN3YQbFhW1grfORo-7" vertex="1">
          <mxGeometry x="120" y="460" width="520" height="20" as="geometry" />
        </mxCell>
        <mxCell id="8u1NRN3YQbFhW1grfORo-1" value="About" parent="8u1NRN3YQbFhW1grfORo-0" />
        <UserObject label="" tooltip="ABOUT&#xa;&#xa;The sponsor is the organisation that is paying for the development of the system.&#xa;&#xa;&#xa;&#xa;Note that a User Interface will most probably want to refer to the Reseller information." id="8u1NRN3YQbFhW1grfORo-2">
          <mxCell style="shape=image;html=1;verticalAlign=top;verticalLabelPosition=bottom;labelBackgroundColor=#ffffff;imageAspect=0;aspect=fixed;image=https://cdn1.iconfinder.com/data/icons/hawcons/32/699014-icon-28-information-128.png;shadow=0;dashed=0;fontFamily=Helvetica;fontSize=12;fontColor=#000000;align=center;strokeColor=#000000;fillColor=#505050;dashPattern=1 1;" parent="8u1NRN3YQbFhW1grfORo-1" vertex="1">
            <mxGeometry x="660" y="460" width="20" height="20" as="geometry" />
          </mxCell>
        </UserObject>
      </root>
    </mxGraphModel>
  </diagram>
</mxfile>
